<svg width="1920" height="1080" xmlns="http://www.w3.org/2000/svg" xmlns:xlink="http://www.w3.org/1999/xlink">
 <g>
  <rect id="svg_49" height="1080" width="1920" y="0" x="0.81967" stroke="#000" fill="#aad4ff"/>
  <path id="svg_2" d="m586.66719,610.66702" opacity="NaN" stroke="#000" fill="#fff"/>
  <path id="svg_11" d="m559.93035,728.73723l-89.94379,-201.44453l134.01365,-21.95919c78.44453,36.6667 143.73111,62.70183 67.26333,101.82467c-76.46778,39.12285 -53.4619,92.21061 -111.3332,121.57906z" opacity="NaN" stroke="#000" fill="#fff"/>
  <path stroke="#000" id="svg_12" d="m469.33382,525.98672l-57.99855,-8.65322c59.7778,-115.77777 105.54019,-59.51474 191.31799,-12.62585l-133.31944,21.27906z" opacity="NaN" fill="#fff"/>
  <path id="svg_15" d="m465.33333,533.33333" opacity="NaN" stroke="#000" fill="#fff"/>
  <path id="svg_24" d="m614.66667,108c1.33333,38.66667 30.66667,-1.33333 36,49.33333c5.33333,50.66667 41.33333,73.33333 54.66667,37.33333c13.33333,-36 14.66667,-17.33333 56,-46.66667c41.33333,-29.33333 42.66667,-84 -13.33333,-81.33333c-56,2.66667 -134.66667,2.66667 -133.33333,41.33333z" opacity="NaN" stroke="#000" fill="#fff"/>
  <path id="svg_25" d="m381.847,253.84699c22.66666,-45.33333 -28.51367,-65.84698 -52.51367,-63.18032c-24,2.66666 -90.66666,-28 -6.66666,-68c84,-40 145.33333,21.33334 190.66666,8c45.33333,-13.33334 76,13.33333 52,33.33333c-24,20 -21.33333,45.33334 4,33.33333c25.33333,-12.00001 38.66668,-58.66667 57.33334,-17.33333c18.66666,41.33334 47.99999,37.33333 10.66666,86.66667l-255.48633,-12.81968z" opacity="NaN" stroke="#000" fill="#fff"/>
  <path id="svg_26" d="m410.63946,518.63946l58.04083,8.68028l89.88114,201.83816c-5.33335,11.99999 -105.05951,84.8154 -83.72618,154.14873c21.33334,69.33334 29.16476,66.0267 -44.16857,10.0267c-73.33334,-56 2.37681,-173.08696 15.71014,-210.42029c13.33334,-37.33333 -18.37681,-37.57971 -38.37681,-81.57971c-20,-44 -2.80272,-66.36734 2.63946,-82.69387z" opacity="NaN" stroke="#000" fill="#fff"/>
  <path id="svg_28" d="m380,255.12685l256.43659,12.95024c-8.43746,10.87199 -0.43659,26.58958 -47.10326,49.25624c-46.66666,22.66667 -39.99999,14.66666 -50.66666,48c-10.66667,33.33334 -13.33333,26.66668 -32,5.33334c-18.66667,-21.33334 -58.66667,-2.66667 -60,-4l-91.10324,-31.11504c-5.74632,-16.36578 -11.56343,-43.09145 24.43657,-80.42478z" opacity="NaN" stroke="#000" fill="#fff"/>
  <path id="svg_29" d="m355.93472,336.96204l90.05233,30.65487c-16.00001,2.66666 -31.32038,41.26805 -5.98705,34.60138c25.33333,-6.66666 33.33333,-12 16,13.33334c-17.33333,25.33333 -14.66666,95.99999 -66.66666,43.99999c-52,-52 -19.23933,-85.42144 -33.39862,-122.58958z" opacity="NaN" stroke="#000" fill="#fff"/>
  <path id="svg_30" d="m834.66667,497.33333" opacity="NaN" stroke="#000" fill="#fff"/>
  <path id="svg_31" d="m769.33333,306.34568c0,0 61.33333,2.98765 29.33333,-47.67901c-32,-50.66667 -65.33333,-62.66667 -62.66667,-25.33333c2.66667,37.33333 1.33333,46.66667 -26.66667,26.66667c-28,-20 -38.66667,41.33333 -5.33333,49.33333c33.33333,8 55.45679,13.65432 65.33333,-2.98765z" opacity="NaN" stroke="#000" fill="#fff"/>
  <path id="svg_32" d="m995.26941,207.58975l-15.26941,-83.14138c1.33333,0 -70.66667,-8 -81.33333,17.33334c-10.66667,25.33333 -18.66667,18.66666 -48,6.66666c-29.33334,-12 -102.66667,1.33334 -92,36c10.66666,34.66667 49.33333,33.33334 66.66666,17.33334c17.33334,-16 55.18139,26.76839 46.92499,42.35813l123.01109,-36.5501z" opacity="NaN" stroke="#000" fill="#fff"/>
  <path id="svg_33" d="m872,245.33333l123.47456,-37.26805l33.44854,173.83216l-84.56411,56.66667c-20.99489,-19.0359 -55.28207,0.30768 -71.02566,-29.23078c-15.74359,-29.53846 -58.66666,-18.66666 -60,5.33334c-1.33333,24 -78.66666,61.33333 -73.33333,-6.66667c5.33333,-68 8,-42.66667 65.33333,-82.66667c57.33334,-40 66.66667,-80 66.66667,-80z" opacity="NaN" stroke="#000" fill="#fff"/>
  <path id="svg_34" d="m868.46136,651.53836l164.71639,-86.82212c-19.29959,-66.05776 -43.17794,-102.40863 -103.94717,-97.02402c-60.76922,5.38461 -33.07692,-24.61538 -57.6923,-30.76923c-12.30769,-3.07692 -72.7048,-5.91659 -102.03046,35.53821c-29.32567,41.4548 -35.37212,31.10015 -37.67981,75.33092c-4.61538,88.46153 53.37329,97.44587 84.32567,89.90009c30.95238,-7.54579 54.32245,10.03668 52.30769,13.84615z" opacity="NaN" stroke="#000" fill="#fff"/>
  <path id="svg_35" d="m866.9229,653.84605l167.29394,-87.81593c15.65476,28.21429 -3.86445,35.02287 51.16758,27.33974c55.03203,-7.68314 -3.88279,72.3077 -30.76923,89.70696c-26.88644,17.39926 -31.0989,30.69596 -20.21978,54.13919l-158.24161,-31.83143c-20.69611,-22.30777 -28.75471,-28.2052 -9.2309,-51.53853z" opacity="NaN" stroke="#000" fill="#fff"/>
  <path id="svg_36" d="m875.71429,707.14286c17.61905,9.52381 -39.76191,56.07143 8.33333,121.78571c48.09524,65.71429 -55.95239,132.5 55.47619,73.92857c111.42857,-58.57142 114.76191,-128.57143 95.23809,-164.28572l-159.04761,-31.42857z" opacity="NaN" stroke="#000" fill="#fff"/>
  <path id="svg_37" d="m1016.00065,307.69231l411.26962,-50.76923c9.14036,-24.1978 -1.11642,-55.38462 -25.73181,-56.92308c-24.61539,-1.53846 -15.38461,-16.92309 9.23077,-15.38462c24.61538,1.53847 76.92308,92.3077 69.23077,40c-7.69231,-52.30769 12.30774,-63.07691 26.15387,-79.99999c13.84613,-16.92308 39.99998,-36.92309 -55.38464,-35.38462c-95.38461,1.53846 -201.53846,-80 -318.46153,-6.15385c-116.92308,73.84615 -83.17781,28.39849 -150.76923,21.43759l34.46218,183.1778z" opacity="NaN" stroke="#000" fill="#fff"/>
  <path id="svg_38" d="m1016,309.04615l14.51761,72.92034l360.45096,88.45966c11.13844,-25.66155 50.87758,-64.33384 26.20066,-99.77999c-24.67692,-35.44615 7.87692,-31.93847 12.49231,-21.16924c4.61538,10.76923 25.96922,-23.44616 1.35384,-38.83077c-24.61538,-15.38461 -13.27011,-29.2923 -4.03934,-52.36923l-410.97604,50.76923z" opacity="NaN" stroke="#000" fill="#fff"/>
  <path id="svg_39" d="m1145.16279,410.76279l12,57.0186c-42.4,40 17.23721,134.6186 -43.56279,110.6186c-60.8,-24 -99.2,-56 -99.2,-99.2c0,-43.2 -30.10698,-26.9814 -68.50698,-40.5814l83.70698,-55.4186l115.56279,27.56279z" opacity="NaN" stroke="#000" fill="#fff"/>
  <path id="svg_41" d="m1157.89027,466.4l-11.91505,-55.2l244.00256,60.06901c-15.27778,34.13333 19.62222,29.33099 18.52222,53.13099c-1.1,23.8 -62.1,64.4 17.1,58c39.6,-3.2 70.2,-17.6 110.1,7.6c39.9,25.2 69.1,78 27.5,73.2c-83.2,-9.6 -71.72381,-9.70476 -81.19048,-28.89524c-9.46666,-19.19047 -7.40952,-25.10476 -26.40952,-22.80476c-19,2.3 -55.81905,-34.51905 -26,11.7c29.81905,46.21905 -63.2,122.4 -94.4,85.6c-88,-86.4 -98.6,-83.4 -71.4,-129.4c27.2,-46 -34.70973,47 -105.90973,-113z" opacity="NaN" stroke="#000" fill="#fff"/>
  <path id="svg_42" d="m1456.66678,704.04768l129.04754,211.42853c-48.09517,38.57148 -69.52373,-76.90471 -108.80945,-47.14281c-39.28571,29.76191 -97.61905,64.28572 -109.52382,-27.38095c-11.90477,-91.66667 30.95239,-60.7143 89.28572,-136.90478z" opacity="NaN" stroke="#000" fill="#fff"/>
  <path id="svg_43" d="m1457.85726,702.85721l129.04754,211.42853c16.19056,-18.57138 31.66675,21.90482 38.80961,-63.80947c3.57143,-42.85715 15.47619,-82.44048 -22.02381,-95.53572c-37.50001,-13.09524 -14.88095,-49.70239 -45.83334,-50.89286c-30.95238,-1.19047 -53.57143,19.04762 -40.47619,-4.76191c13.09524,-23.80952 -29.76191,-25 -59.52381,3.57143z" opacity="NaN" stroke="#000" fill="#fff"/>
 </g>

</svg>